<?xml version="1.0" encoding="UTF-8" standalone="no"?>
<!DOCTYPE svg PUBLIC "-//W3C//DTD SVG 1.1//EN" "http://www.w3.org/Graphics/SVG/1.1/DTD/svg11.dtd">
<svg width="100%" height="100%" viewBox="0 0 24 24" version="1.1" xmlns="http://www.w3.org/2000/svg" xmlns:xlink="http://www.w3.org/1999/xlink" xml:space="preserve" xmlns:serif="http://www.serif.com/" style="fill-rule:evenodd;clip-rule:evenodd;stroke-linejoin:round;stroke-miterlimit:2;">
    <g transform="matrix(1,0,0,1,-80,-45.5)">
        <g transform="matrix(1,0,0,1,0,33)">
            <path d="M91.75,12.5C98.235,12.5 103.5,17.765 103.5,24.25C103.5,30.735 98.235,36 91.75,36C85.265,36 80,30.735 80,24.25C80,17.765 85.265,12.5 91.75,12.5ZM91.75,18.25C90.121,18.25 89.917,18.257 89.277,18.286C87.098,18.386 85.887,19.595 85.787,21.776C85.757,22.417 85.75,22.621 85.75,24.25C85.75,25.88 85.757,26.084 85.786,26.724C85.886,28.903 87.095,30.114 89.276,30.214C89.917,30.243 90.121,30.25 91.75,30.25C93.38,30.25 93.584,30.243 94.224,30.214C96.401,30.114 97.615,28.905 97.714,26.724C97.743,26.084 97.75,25.88 97.75,24.25C97.75,22.621 97.743,22.417 97.714,21.777C97.616,19.6 96.406,18.387 94.225,18.287C93.584,18.257 93.38,18.25 91.75,18.25ZM91.75,19.332C93.352,19.332 93.542,19.338 94.175,19.367C95.801,19.441 96.561,20.212 96.635,21.826C96.664,22.459 96.669,22.649 96.669,24.251C96.669,25.853 96.663,26.042 96.635,26.675C96.56,28.287 95.803,29.06 94.175,29.134C93.542,29.163 93.353,29.169 91.75,29.169C90.148,29.169 89.958,29.163 89.326,29.134C87.696,29.06 86.94,28.285 86.866,26.675C86.837,26.042 86.831,25.853 86.831,24.25C86.831,22.648 86.838,22.459 86.866,21.826C86.941,20.212 87.698,19.44 89.326,19.366C89.958,19.338 90.148,19.332 91.75,19.332ZM91.75,21.169C90.049,21.169 88.669,22.549 88.669,24.25C88.669,25.952 90.049,27.331 91.75,27.331C93.452,27.331 94.831,25.952 94.831,24.25C94.831,22.549 93.452,21.169 91.75,21.169ZM91.75,26.25C90.646,26.25 89.75,25.355 89.75,24.25C89.75,23.146 90.646,22.25 91.75,22.25C92.855,22.25 93.75,23.146 93.75,24.25C93.75,25.355 92.855,26.25 91.75,26.25ZM94.953,20.328C94.555,20.328 94.233,20.65 94.233,21.048C94.233,21.445 94.555,21.768 94.953,21.768C95.351,21.768 95.673,21.445 95.673,21.048C95.673,20.65 95.351,20.328 94.953,20.328Z"/>
        </g>
    </g>
</svg>
