<?xml version="1.0" encoding="UTF-8" standalone="no"?>
<!DOCTYPE svg PUBLIC "-//W3C//DTD SVG 1.1//EN" "http://www.w3.org/Graphics/SVG/1.1/DTD/svg11.dtd">
<svg width="100%" height="100%" viewBox="0 0 148 24" version="1.1" xmlns="http://www.w3.org/2000/svg" xmlns:xlink="http://www.w3.org/1999/xlink" xml:space="preserve" xmlns:serif="http://www.serif.com/" style="fill-rule:evenodd;clip-rule:evenodd;stroke-linejoin:round;stroke-miterlimit:2;">
    <g transform="matrix(1,0,0,1,-970.081,-134.343)">
        <g>
            <g transform="matrix(1,0,0,1,1094.09,134.343)">
                <path d="M23.809,21.646L17.604,15.441C18.771,13.836 19.461,11.862 19.461,9.73C19.461,4.365 15.096,0 9.73,0C4.365,0 -0,4.365 -0,9.73C-0,15.096 4.365,19.46 9.73,19.46C11.764,19.46 13.653,18.833 15.217,17.762L21.455,24L23.809,21.646ZM2.854,9.73C2.854,5.938 5.939,2.853 9.731,2.853C13.523,2.853 16.608,5.938 16.608,9.73C16.608,13.522 13.523,16.607 9.731,16.607C5.938,16.607 2.854,13.522 2.854,9.73Z" style="fill-rule:nonzero;"/>
            </g>
            <g transform="matrix(1,0,0,1,1051.42,134.343)">
                <path d="M12,2C14.757,2 17,4.243 17,7.001C17,9.757 14.757,12.001 12,12.001C9.243,12.001 7,9.757 7,7.001C7,4.243 9.243,2 12,2ZM12,0C8.134,0 5,3.134 5,7.001C5,10.866 8.134,14.001 12,14.001C15.866,14.001 19,10.866 19,7.001C19,3.134 15.866,0 12,0ZM18.369,13.353C17.872,13.851 17.312,14.284 16.711,14.655C19.583,16.529 21.089,19.738 21.683,22.001L2.296,22.001C2.868,19.711 4.354,16.498 7.269,14.643C6.666,14.269 6.107,13.832 5.611,13.331C1.353,16.403 -0,21.837 -0,24L24,24C24,21.858 22.56,16.443 18.369,13.353Z" style="fill-rule:nonzero;"/>
            </g>
            <g transform="matrix(1,0,0,1,1008.75,135.343)">
                <path d="M6.28,3C9.516,3.001 11.253,6.491 12,8.031C12.75,6.484 14.469,3.01 17.726,3.01C19.784,3.01 22,4.319 22,7.192C22,10.634 17.256,15.043 12,20.192C6.742,15.041 2,10.633 2,7.192C2,4.516 3.965,2.999 6.28,3ZM6.281,1C3.098,1 0,3.187 0,7.192C0,11.853 5.57,16.619 12,23C18.43,16.619 24,11.853 24,7.192C24,3.181 20.903,1.01 17.726,1.01C15.522,1.01 13.28,2.052 12,4.248C10.715,2.042 8.478,1 6.281,1Z" style="fill-rule:nonzero;"/>
            </g>
            <g transform="matrix(1,0,0,1,968.081,134.343)">
                <path d="M20,7L16,7L16,4C16,1.791 14.209,0 12,0C9.791,0 8,1.791 8,4L8,7L4,7L2,24L22,24L20,7ZM9,4C9,2.346 10.346,1 12,1C13.654,1 15,2.346 15,4L15,7L9,7L9,4ZM4.249,22L5.778,9L8,9L8,10.5C8,10.776 8.224,11 8.5,11C8.776,11 9,10.776 9,10.5L9,9L15,9L15,10.5C15,10.776 15.224,11 15.5,11C15.776,11 16,10.776 16,10.5L16,9L18.222,9L19.751,22L4.249,22Z" style="fill-rule:nonzero;"/>
            </g>
        </g>
    </g>
</svg>
