<?xml version="1.0" encoding="UTF-8" standalone="no"?>
<!DOCTYPE svg PUBLIC "-//W3C//DTD SVG 1.1//EN" "http://www.w3.org/Graphics/SVG/1.1/DTD/svg11.dtd">
<svg width="100%" height="100%" viewBox="0 0 1732 1732" version="1.1" xmlns="http://www.w3.org/2000/svg" xmlns:xlink="http://www.w3.org/1999/xlink" xml:space="preserve" xmlns:serif="http://www.serif.com/" style="fill-rule:evenodd;clip-rule:evenodd;stroke-linejoin:round;stroke-miterlimit:2;">
    <g>
        <path d="M1302.57,755.403C1313.78,755.403 1294.64,763.328 1302.57,755.403C1302.57,755.403 1302.57,755.403 1302.57,755.403Z" style="fill:rgb(91,192,235);fill-rule:nonzero;"/>
        <path d="M1569.79,752.718C1575.82,752.057 1581.85,752.393 1586.54,752.718C1587.87,758.748 1571.8,794.245 1544.02,814.341C1552.09,815.204 1556.18,816.807 1560.37,818.096C1561.04,817.962 1561.72,817.827 1562.43,817.693C1562.14,817.951 1561.85,818.197 1561.56,818.455C1561.85,818.533 1562.13,818.612 1562.43,818.69C1558.07,830.75 1509.18,882.656 1497.47,883.654C1506.5,885.303 1523.62,888.46 1529.28,892.363C1534.63,896.051 1484.07,942.924 1448.91,947.62C1459.58,952.283 1488.27,956.382 1487.41,960.678C1486.75,965.027 1445.23,1005.21 1412.07,1005.55C1421.12,1014.59 1439.19,1013.25 1442.88,1020.62C1446.56,1027.98 1393.32,1057.79 1356.15,1062.47C1357.47,1067.17 1378.63,1071.53 1386.29,1074.87C1393.99,1078.22 1363.52,1113.38 1304.25,1109.36C1308.6,1116.06 1323.34,1123.09 1325.01,1127.11C1328.36,1134.47 1298.22,1149.2 1253.35,1157.57C1259.03,1164.95 1275.78,1162.27 1274.44,1171.3C1273.1,1180.35 1234.26,1201.11 1194.4,1200.45C1196.42,1206.13 1204.78,1211.16 1204.46,1218.19C1204.17,1224.23 1167.27,1232.01 1145.42,1239.6C1145.76,1241.98 1143.05,1244.97 1141.18,1248.22C1142.45,1249.06 1143.62,1249.81 1144.45,1250.85C1168.88,1237.23 1187.82,1232.26 1189.38,1237.28C1190.39,1240.29 1185.71,1250 1186.7,1255.36C1214.42,1227.65 1246.06,1231.09 1243.13,1236.95C1243.18,1236.95 1243.24,1236.94 1243.3,1236.94C1243.23,1236.96 1243.16,1237 1243.08,1237.03C1240.49,1242.23 1232.28,1253.09 1233.59,1256.03C1254.35,1241.96 1294.53,1233.59 1295.87,1238.95C1297.21,1244.31 1287.5,1251.68 1286.83,1260.38C1303.91,1245.99 1342.42,1247.99 1344.77,1250C1347.11,1251.68 1334.39,1266.41 1331.04,1273.45C1350.8,1260.38 1397.01,1261.72 1396,1266.07C1394.66,1270.43 1388.3,1278.47 1383.61,1284.5C1389.63,1279.81 1437.19,1284.51 1444.89,1288.85C1442.88,1291.53 1441.87,1294.54 1437.53,1299.23C1460.29,1297.22 1484.07,1307.94 1486.08,1311.62C1486.02,1311.68 1485.96,1311.75 1485.9,1311.81C1486.08,1311.86 1486.24,1311.9 1486.42,1311.95C1486.15,1311.99 1485.9,1312.05 1485.65,1312.1C1483.66,1314.33 1480.84,1316.8 1477.71,1318.99C1495.04,1319.99 1575.33,1336.9 1588.02,1346.63C1588.2,1346.68 1588.37,1346.73 1588.55,1346.79C1588.38,1346.82 1588.22,1346.85 1588.05,1346.9C1575.16,1356.27 1494.38,1370.22 1476.7,1370.56C1480.05,1372.9 1483.07,1375.58 1485.07,1377.92C1482.73,1381.27 1458.62,1391.32 1435.85,1388.64C1439.78,1393.18 1440.71,1395.8 1442.34,1398.49C1442.63,1398.67 1442.92,1398.84 1443.22,1399.02C1443.02,1399.01 1442.83,1398.98 1442.64,1398.97C1442.71,1399.09 1442.79,1399.23 1442.88,1399.35C1435.18,1403.71 1387.29,1406.73 1381.26,1401.69C1382.94,1403.85 1393.82,1418.2 1392.96,1420.77C1392.97,1420.77 1392.98,1420.78 1392.98,1420.78L1392.96,1420.78C1391.59,1424.77 1347.28,1424.11 1328.36,1410.74C1331.69,1418.07 1344.47,1433.86 1341.23,1434.94C1341.3,1435.03 1341.36,1435.11 1341.41,1435.19C1341.3,1435.13 1341.2,1435.07 1341.09,1435.02C1336.56,1436.89 1299.76,1437.1 1283.81,1422.46C1284.15,1431.17 1293.87,1438.89 1292.19,1444.23C1290.85,1449.59 1250.67,1439.87 1230.58,1425.14C1228.9,1427.82 1237.28,1439.54 1239.62,1444.89C1241.96,1449.93 1210.82,1453.27 1183.69,1424.13C1182.69,1429.16 1186.71,1439.54 1185.71,1442.21C1184.03,1447.57 1162.6,1440.88 1136.15,1424.13C1135.49,1430.41 1144.91,1436.69 1140.35,1440.39C1140.4,1440.44 1140.45,1440.49 1140.5,1440.54C1140.42,1440.52 1140.34,1440.49 1140.26,1440.47C1134.35,1444.41 1105.98,1435.86 1087.59,1418.11C1086.62,1421.02 1087.22,1424.98 1086.36,1428.21C1086.44,1428.31 1086.51,1428.39 1086.58,1428.48C1086.49,1428.45 1086.4,1428.42 1086.31,1428.37C1085.04,1433 1082.82,1432.55 1076.83,1430.11C1075.21,1432.09 1069.35,1434.81 1067.83,1437.53C1094.1,1435.59 1109.69,1451.5 1105.14,1453.49C1105.2,1453.54 1105.27,1453.57 1105.34,1453.6C1105.2,1453.59 1105.06,1453.59 1104.92,1453.58C1100.82,1455.16 1092.26,1456.76 1091.94,1458.96C1109.02,1460.98 1133.47,1474.7 1131.79,1478.05C1130.12,1481.4 1121.74,1480.73 1117.39,1485.09C1132.8,1485.09 1151.88,1503.84 1152.22,1505.85C1152.56,1507.85 1139.5,1509.87 1134.46,1511.88C1150.16,1513.83 1174.65,1535.63 1171.21,1537.6C1171.24,1537.62 1171.27,1537.63 1171.31,1537.65C1171.24,1537.65 1171.18,1537.65 1171.12,1537.64C1168.34,1539.17 1161.6,1540.4 1156.9,1541.34C1162.26,1541.68 1184.7,1565.45 1186.71,1571.14C1186.55,1571.19 1186.4,1571.24 1186.25,1571.29C1186.29,1571.36 1186.34,1571.41 1186.37,1571.48C1183.41,1571.95 1182.89,1572.81 1178.34,1573.15C1191.07,1582.53 1198.43,1598.61 1197.76,1601.62C1195.75,1601.62 1193.08,1601.96 1190.06,1601.62C1198.8,1610.05 1232.93,1655.21 1234.93,1665.91C1224.21,1665.24 1175.66,1635.77 1166.29,1628.07C1166.95,1630.75 1166.95,1633.43 1167.29,1635.77C1164.61,1636.78 1147.54,1631.09 1137.15,1619.36C1137.15,1623.72 1136.49,1625.73 1136.15,1628.07C1136.05,1628.05 1135.92,1628.01 1135.81,1627.97L1135.81,1628.07C1115.37,1616.15 1103.92,1604.58 1103.33,1601.62C1103,1606.64 1102.32,1614.01 1100.99,1616.68C1099.64,1619.36 1075.53,1598.27 1071.85,1582.53C1070.18,1587.55 1069.84,1600.95 1067.83,1600.95C1065.83,1600.95 1045.39,1583.87 1043.72,1568.47C1040.04,1573.15 1041.38,1581.19 1038.37,1583.2C1035.35,1585.21 1018.94,1562.1 1014.92,1545.35C1012.91,1546.03 1011.92,1556.08 1010.91,1559.76C1009.9,1563.44 992.155,1551.05 991.146,1523.92C988.131,1526.27 985.788,1533.31 984.118,1534.31C980.767,1536.32 972.73,1523.26 966.7,1502.83C963.971,1505.56 965.257,1520.65 956.019,1508.66C956.008,1508.95 955.997,1509.23 955.985,1509.53C953.775,1504.88 945.77,1494.25 944.261,1478.05C940.611,1480.14 937.636,1487.97 933.254,1479.47C933.243,1479.79 933.232,1480.08 933.22,1480.39C929.837,1474.22 926.49,1461.28 921.832,1453.27C919.153,1455.28 920.151,1458.3 916.474,1458.3C909.099,1457.96 906.42,1423.13 905.423,1418.78C902.321,1421.88 900.426,1427.12 898.104,1425.03C898.082,1425.07 898.07,1425.1 898.048,1425.14C892.479,1417.18 893.468,1420 890.729,1407.59C885.45,1391.2 879.005,1366.93 873.087,1349.56C851.421,1527.93 881.553,1518.32 874.948,1641.47L859.211,1641.47C863.673,1575.19 848.16,1492.77 848.16,1462.65C848.16,1433.72 853.338,1384.37 856.712,1355.33C843.984,1388.55 840.552,1426.33 834.755,1424.72C834.643,1424.86 834.542,1425 834.43,1425.14C834.273,1424.89 834.15,1424.64 834.004,1424.39C832.581,1423.46 831.953,1421 829.072,1418.11C827.847,1423.4 825.404,1459.27 817.101,1457.54C817.067,1457.68 817.045,1457.82 817.011,1457.96C816.966,1457.81 816.921,1457.65 816.865,1457.49C814.534,1456.9 815.016,1454.36 812.662,1452.6C804.334,1466.29 802.063,1487.13 795.043,1481.42C794.886,1481.75 794.74,1482.07 794.583,1482.41C794.561,1481.91 794.538,1481.44 794.516,1480.97C793.07,1479.65 791.826,1477.98 790.223,1477.37C788.593,1495.04 776.985,1513.79 772.346,1512.47C772.279,1512.6 772.212,1512.74 772.144,1512.87C772.144,1512.71 772.133,1512.56 772.133,1512.4C769.488,1511.38 770.81,1504.88 767.784,1502.15C760.756,1522.92 752.72,1535.98 749.369,1534.31C747.699,1533.3 745.02,1526.26 742.341,1523.92C741.332,1551.38 723.926,1563.44 722.581,1559.76C721.583,1556.07 720.575,1546.03 718.568,1545.35C714.544,1562.1 698.471,1585.21 695.12,1583.19C691.78,1581.18 693.45,1572.81 689.763,1568.46C688.093,1583.53 667.66,1600.61 665.654,1600.94C663.648,1600.94 662.975,1587.89 661.641,1582.53C658.039,1597.9 633.741,1620.07 632.286,1616.19C632.241,1616.25 632.207,1616.3 632.163,1616.35C632.185,1616.23 632.197,1616.12 632.219,1616.01C631.065,1612.96 630.47,1606.57 630.157,1601.62C629.159,1606.98 603.033,1626.73 597.339,1628.07C597.317,1627.91 597.294,1627.76 597.272,1627.6C597.182,1627.64 597.093,1627.69 597.003,1627.73C596.546,1622.39 596.342,1622.44 596.342,1619.36C585.627,1631.09 568.882,1636.78 566.203,1635.77C566.203,1633.76 566.539,1631.09 567.2,1628.07C557.83,1635.77 509.275,1665.24 498.56,1665.91C498.594,1665.72 498.661,1665.51 498.717,1665.29C498.336,1665.5 497.955,1665.71 497.551,1665.91C498.35,1664.79 523.934,1620.36 543.427,1601.62C541.051,1601.91 538.406,1601.94 536.444,1601.71C536.007,1601.79 535.547,1601.87 535.054,1601.95C535.901,1597.27 543.016,1582.09 555.15,1573.15C549.843,1572.74 550.665,1571.85 546.105,1571.48C551.539,1562.45 571.572,1541.66 576.58,1541.34C571.704,1540.37 564.935,1539.07 562.099,1537.46C561.796,1537.53 561.494,1537.59 561.18,1537.65C561.359,1537.49 561.55,1537.34 561.74,1537.17C560.518,1534.71 582.969,1514.16 599.019,1511.88C594.199,1509.95 581.982,1508.02 581.299,1506.09C581.064,1506.11 580.839,1506.15 580.593,1506.18C580.851,1505.98 581.097,1505.8 581.355,1505.61C582.767,1502.72 601.16,1485.41 616.09,1485.09C612.167,1481.16 604.119,1481.38 601.867,1478.27C601.587,1478.32 601.318,1478.34 601.026,1478.38C601.239,1478.22 601.452,1478.07 601.665,1477.91C600.656,1474.35 624.687,1460.94 641.544,1458.96C640.894,1457.01 631.681,1455.05 628.105,1453.4C627.814,1453.5 627.533,1453.6 627.141,1453.6C627.298,1453.46 627.455,1453.31 627.69,1453.19C624.518,1451.17 638.551,1435.55 665.653,1437.53C663.759,1434.68 657.661,1431.54 656.44,1429.79C650.027,1432.49 647.544,1433.21 646.162,1428.37C646.072,1428.42 645.983,1428.45 645.893,1428.49C645.971,1428.4 646.05,1428.32 646.128,1428.22C645.265,1424.99 645.859,1421.02 644.895,1418.11C625.276,1437.05 596.142,1444.38 592.216,1440.46C592.137,1440.49 592.059,1440.52 591.981,1440.55C592.037,1440.49 592.082,1440.44 592.127,1440.39C587.565,1436.69 597.003,1430.41 596.341,1424.14C569.878,1440.88 548.448,1447.57 546.778,1442.22C545.769,1439.54 549.793,1429.16 548.784,1424.14C522.624,1452.23 492.742,1450.13 492.742,1445.42C492.742,1443.28 503.763,1428.12 501.899,1425.15C481.814,1439.87 441.632,1449.59 440.287,1444.23C438.617,1438.88 448.323,1431.18 448.66,1422.47C432.722,1437.11 395.925,1436.89 391.385,1435.02C391.273,1435.08 391.172,1435.13 391.06,1435.19C391.116,1435.1 391.172,1435.03 391.239,1434.94C388.225,1433.43 400.701,1418.27 404.117,1410.74C385.209,1424.11 340.891,1424.78 339.512,1420.79C339.487,1420.79 339.501,1420.77 339.512,1420.77C338.657,1418.21 349.568,1403.82 351.214,1401.7C345.33,1406.61 299.544,1403.85 290.229,1399.66C290.016,1399.67 289.814,1399.68 289.601,1399.69C289.702,1399.63 289.803,1399.57 289.904,1399.51C289.803,1399.46 289.691,1399.41 289.601,1399.36C291.607,1396.34 292.28,1393.66 296.629,1388.64C273.854,1391.32 249.745,1381.28 247.402,1377.92C249.408,1375.58 252.423,1372.9 255.775,1370.56C238.099,1370.23 157.343,1356.28 144.431,1346.9C144.263,1346.87 144.106,1346.82 143.927,1346.79C144.106,1346.73 144.286,1346.69 144.465,1346.63C157.142,1336.9 237.449,1319.99 254.766,1318.99C251.65,1316.81 248.826,1314.33 246.831,1312.1C246.573,1312.05 246.327,1312 246.069,1311.95C246.237,1311.91 246.405,1311.86 246.573,1311.82C246.517,1311.75 246.45,1311.68 246.405,1311.63C248.411,1307.94 272.184,1297.22 294.959,1299.23C290.588,1294.52 289.555,1291.46 287.584,1288.85C295.295,1284.5 342.841,1279.81 348.871,1284.5C344.186,1278.47 337.82,1270.43 336.475,1266.08C335.477,1261.73 381.689,1260.38 401.438,1273.45C398.098,1266.41 385.365,1251.68 387.719,1250C390.062,1248 428.562,1245.99 445.644,1260.38C444.971,1251.68 435.265,1244.31 436.61,1238.95C437.944,1233.59 478.126,1241.97 498.895,1256.03C500.195,1253.11 492.047,1242.31 489.413,1237.08C489.335,1237.05 489.267,1236.99 489.178,1236.94C489.234,1236.93 489.29,1236.93 489.346,1236.93C486.483,1231.21 517.869,1227.46 545.769,1255.36C546.677,1250.52 542.945,1242.14 542.945,1238.33C542.945,1228.4 576.963,1244.72 587.61,1250.62C588.451,1249.49 589.706,1248.71 591.062,1247.82C589.157,1244.63 586.579,1241.72 587.094,1239.4C565.294,1231.77 527.981,1223.93 527.69,1217.86C527.354,1210.83 535.39,1205.81 537.733,1200.11C497.887,1200.44 459.039,1180.02 457.706,1170.97C456.361,1161.94 473.106,1164.62 478.8,1157.24C433.597,1148.87 403.458,1134.14 406.798,1126.78C408.479,1122.75 423.543,1115.73 427.567,1109.02C368.297,1113.05 337.822,1077.89 345.522,1074.54C353.222,1071.18 374.316,1066.84 375.661,1062.14C338.83,1057.45 285.243,1027.65 288.931,1020.29C292.282,1013.25 310.698,1014.26 319.743,1005.21C286.589,1004.89 245.062,964.695 244.389,960.346C243.392,955.997 272.186,951.973 282.901,947.288C248.077,942.592 197.18,895.718 202.537,892.031C207.895,888.343 223.295,885.34 234.346,883.322C222.622,882.661 173.395,830.755 169.383,818.359C174.404,817.361 178.428,815.008 187.798,814.01C160.001,793.914 143.929,758.417 145.274,752.398C145.543,752.376 145.834,752.353 146.115,752.331C146.059,752.241 145.992,752.152 145.947,752.062C146.093,752.152 146.216,752.23 146.362,752.32C150.879,752.018 156.438,751.771 162.02,752.398C142.932,733.972 68.587,635.529 64.575,612.754C64.799,612.765 65.046,612.799 65.292,612.832C65.27,612.81 65.258,612.776 65.236,612.754C65.292,612.788 65.337,612.81 65.382,612.844C90.332,615.837 193.717,678.245 213.59,695.136C212.245,689.442 211.909,683.412 211.573,678.727C217.603,676.71 254.445,689.106 277.545,714.56C277.545,704.842 279.551,700.83 280.224,695.797C280.448,695.853 280.695,695.909 280.953,695.988C280.942,695.921 280.919,695.865 280.897,695.797C280.975,695.887 281.054,695.965 281.132,696.044C295.434,700.382 349.917,742.267 351.89,753.397C352.888,742.345 354.232,726.609 357.248,720.915C360.263,715.221 412.158,760.761 420.53,795.26C423.989,783.506 424.874,753.989 429.9,755.493C429.9,755.459 429.911,755.437 429.911,755.403C429.922,755.437 429.933,755.47 429.945,755.504C436.121,757.309 478.544,793.276 482.153,825.735C490.189,815.681 487.511,797.602 494.202,793.253C500.905,788.893 536.401,838.792 544.774,875.287C549.123,873.617 551.129,852.187 553.808,844.15C556.487,836.114 594.662,862.902 596.68,922.171C603.035,917.486 608.056,902.074 612.08,899.732C619.108,895.719 636.862,923.841 649.919,968.047C656.573,961.716 652.448,944.17 661.643,946.011L661.643,945.944L661.677,946.011C670.991,947.591 694.842,983.626 698.474,1022.63C703.832,1019.62 707.855,1010.91 714.883,1010.57C717.539,1010.45 721.294,1017.3 725.497,1026.78C727.739,1027.38 730.249,1027.93 733.298,1027.32C726.607,1004.55 695.795,953.644 701.489,947.625C707.183,941.595 718.234,945.271 724.926,942.592C693.117,908.104 680.395,857.88 687.087,849.507C693.79,841.134 704.505,858.216 715.556,857.207C687.087,810.995 676.372,773.156 685.417,770.141C690.438,768.807 707.856,776.171 717.226,774.49C668.099,726.996 672.37,670.694 683.668,676.148C683.679,675.89 683.702,675.632 683.735,675.375C683.87,675.756 684.038,676.081 684.206,676.417C693.823,681.248 712.462,695 717.226,692.456C692.709,657.481 675.153,585.555 686.112,583.466C686.101,583.41 686.09,583.343 686.09,583.287C686.124,583.343 686.168,583.388 686.213,583.444C695.538,581.864 708.607,597.712 723.257,598.687C697.142,569.22 699.82,501.578 703.161,497.229C706.512,492.869 732.303,514.636 745.024,520.665C721.752,486.753 721.73,404.452 730.644,407.001C730.633,406.934 730.633,406.878 730.622,406.811C730.678,406.889 730.723,406.957 730.768,407.035C738.659,409.265 752.736,420.137 762.768,427.905C754.395,416.854 761.098,333.139 768.798,319.745C768.91,319.823 769.033,319.891 769.145,319.969C769.145,319.891 769.134,319.823 769.134,319.745C769.201,319.868 769.269,319.98 769.347,320.092C774.189,323.219 779.143,325.046 787.213,332.466C782.864,292.284 801.28,250.432 807.646,246.745L807.825,246.924C807.881,246.756 807.926,246.577 807.982,246.408C808.06,246.722 808.139,247.002 808.217,247.316C811.837,250.936 816.567,255.745 820.703,261.472C821.375,230.335 849.172,88.012 865.906,66.245C865.973,66.335 866.04,66.436 866.097,66.514C866.153,66.312 866.198,66.122 866.243,65.909C866.344,66.324 866.433,66.716 866.534,67.12C883.324,91.487 910.123,230.717 911.121,261.472C915.47,255.453 920.491,250.432 924.179,246.744C930.209,250.432 948.961,292.283 944.601,332.465C952.794,324.933 957.782,323.162 962.703,319.956C962.804,319.765 962.916,319.597 963.028,319.407C963.028,319.519 963.017,319.631 963.017,319.743L963.028,319.743C970.728,333.137 977.419,416.852 969.047,427.903C979.628,419.979 993.773,408.804 1001.55,406.898C1001.65,406.752 1001.76,406.618 1001.87,406.472C1001.85,406.595 1001.82,406.707 1001.8,406.831C1009.26,403.1 1010.73,485.451 986.801,520.663C998.973,515.07 1024.39,493.64 1028.45,497.036C1028.52,496.991 1028.59,496.935 1028.65,496.89C1028.62,496.969 1028.58,497.036 1028.54,497.114C1032.2,501.992 1034.49,569.439 1008.57,598.684C1023.3,598.034 1036.43,582.017 1045.77,583.497C1045.87,583.43 1045.97,583.351 1046.07,583.284C1046.03,583.362 1045.99,583.452 1045.95,583.531C1056.38,585.769 1039.15,657.08 1014.6,692.453C1019.46,695.042 1038.82,680.953 1048.23,676.134C1048.4,675.876 1048.58,675.641 1048.75,675.372C1048.74,675.551 1048.7,675.731 1048.68,675.899C1058.98,671.609 1063.95,726.776 1014.6,774.488C1023.34,776.113 1040.22,768.962 1045.87,770.005L1046.07,769.803C1046.05,769.881 1046.03,769.96 1046,770.038C1056.39,772.629 1043.14,813.244 1016.27,857.205C1026.98,857.878 1038.04,841.132 1044.73,849.505C1051.43,857.878 1038.71,908.102 1006.89,942.59C1011.96,944.372 1019.33,942.893 1025.22,944.675C1025.26,944.653 1025.28,944.63 1025.31,944.608C1025.3,944.63 1025.29,944.664 1025.28,944.698C1027.15,945.27 1028.88,946.166 1030.34,947.623C1036.37,953.642 1005.22,1004.55 998.515,1027.31C1001.82,1027.97 1004.5,1027.28 1006.88,1026.63C1006.88,1026.63 1010.24,1018.94 1010.24,1018.94C1010.91,1017.94 1011.25,1017.27 1011.92,1016.26C1011.92,1016.34 1011.91,1016.41 1011.91,1016.48C1019.91,1002.71 1026.49,1019.37 1033.69,1022.97C1037.19,981.646 1060.88,954.101 1061.47,952.98L1061.47,953.249C1079.5,932.627 1075.86,962.318 1082.24,968.38C1095.93,921.687 1114.19,894.647 1120.33,899.908C1120.36,899.841 1120.38,899.785 1120.42,899.729L1120.42,899.964C1124.38,902.923 1129.29,917.292 1135.48,922.168C1137.49,862.834 1175.93,835.688 1178.42,844.393C1178.51,844.315 1178.59,844.214 1178.68,844.146C1178.61,844.292 1178.54,844.437 1178.49,844.583C1181.1,852.933 1183.11,873.646 1187.39,875.283C1195.76,838.789 1230.92,788.889 1237.95,793.249C1244.99,797.598 1241.97,815.677 1250.01,825.731C1253.68,792.608 1297.85,755.738 1302.58,755.399C1307.27,755.074 1308.27,783.868 1311.62,795.256C1319.99,760.768 1371.23,715.554 1374.58,721.247C1374.58,721.258 1374.59,721.269 1374.59,721.281C1374.7,721.158 1374.81,721.046 1374.91,720.911C1374.87,721.146 1374.81,721.382 1374.77,721.617C1377.96,727.58 1378.95,742.89 1379.93,753.729C1382.28,742.341 1438.87,699.144 1451.6,696.129C1451.72,696.006 1451.81,695.916 1451.92,695.793C1451.85,696.073 1451.78,696.353 1451.7,696.623C1452.71,701.42 1454.28,705.489 1454.28,714.881C1476.85,690.021 1512.52,677.95 1519.76,678.97C1519.93,678.892 1520.07,678.802 1520.24,678.723C1520.16,678.813 1520.09,678.914 1520.02,679.014C1520.09,679.025 1520.18,679.036 1520.24,679.059C1519.9,683.408 1519.58,689.438 1518.23,695.468C1538.11,678.577 1641.82,616.158 1666.45,613.176C1666.71,613.03 1666.98,612.896 1667.25,612.75C1667.17,612.873 1667.09,612.985 1667.01,613.109C1667.09,613.109 1667.18,613.087 1667.25,613.087C1663.23,636.185 1588.88,734.639 1569.79,752.718Z" style="fill:rgb(91,192,235);fill-rule:nonzero;"/>
    </g>
</svg>
